<svg id="iconfinder_payment_method_card_visa_206684" xmlns="http://www.w3.org/2000/svg" width="32" height="20" viewBox="0 0 32 20">
  <rect id="Rectangle-20" width="32" height="16" transform="translate(0 1.8)" fill="#f6f6f6"/>
  <path id="Rectangle-1" d="M29.6,0H1.6A1.721,1.721,0,0,0,0,1.6V4H32V2.4A2.121,2.121,0,0,0,29.6,0Z" transform="translate(0)" fill="#265697"/>
  <path id="Rectangle-1-2" data-name="Rectangle-1" d="M0,0S0,0,0,1.6A2.121,2.121,0,0,0,2.4,4H29.6A2.121,2.121,0,0,0,32,1.6V0Z" transform="translate(0 16)" fill="#d97b16"/>
  <path id="Shape" d="M6.793.356A5.736,5.736,0,0,0,4.764,0C2.527,0,.951,1.151.938,2.8.925,4.02,2.063,4.7,2.921,5.106c.881.416,1.177.681,1.173,1.053-.006.569-.7.829-1.354.829A4.659,4.659,0,0,1,.609,6.542L.318,6.407,0,8.307a7.031,7.031,0,0,0,2.522.453c2.38,0,3.924-1.138,3.942-2.9.009-.965-.595-1.7-1.9-2.306C3.772,3.162,3.287,2.9,3.292,2.5c0-.353.41-.73,1.3-.73A4.1,4.1,0,0,1,6.283,2.1l.2.1L6.793.356" transform="translate(15.53 5.6)" fill="#265697"/>
  <path id="Shape-2" data-name="Shape" d="M2.376,8.481H0L3.362.7A1.119,1.119,0,0,1,4.548,0H6.3L8.129,8.479h-2.1c0-.011-.208-.976-.275-1.272l-1.594,0-1.3,0c-.085.222-.461,1.232-.477,1.274h0Zm2.332-6.19c-.06.162-.138.369-.2.538l0,.007c-.072.191-.1.258-.1.262L4.4,3.122c-.084.221-.718,1.891-.893,2.348H5.384c-.089-.42-.519-2.43-.524-2.45Z" transform="translate(21.831 5.756)" fill="#265697"/>
  <path id="Shape-3" data-name="Shape" d="M0,8.486,1.415,0H3.679L2.263,8.486Z" transform="translate(11.85 5.747)" fill="#265697"/>
  <path id="Shape-4" data-name="Shape" d="M5.587,0,3.371,5.787,3.135,4.611A6.577,6.577,0,0,0,0,1.051L2.026,8.473l2.4,0L7.985,0h-2.4" transform="translate(4.364 5.754)" fill="#265697"/>
  <path id="Shape-5" data-name="Shape" d="M3.679,0H.029L0,.177a7.529,7.529,0,0,1,5.5,4.44L4.705.716A.949.949,0,0,0,3.679,0" transform="translate(2 5.748)" fill="#d97b16"/>
</svg>
